<svg xmlns="http://www.w3.org/2000/svg" viewBox="0 0 417.61 426.62"><defs><style>.a,.d{fill:none;}.a,.b,.c,.d{stroke:#49b8ea;stroke-miterlimit:10;}.a{stroke-width:10px;}.b,.c,.e{fill:#49b8ea;}.b{stroke-width:5px;}.d{stroke-width:3px;}</style></defs><title>Untitled-2</title><path class="a" d="M46.27,24A472.92,472.92,0,0,1,87.6,72.19s43.82,58.79,62.28,60.94a35.17,35.17,0,0,0,6.88.05c7-1.07,11.08-5.83,36.11-9.59,35.53-5.35,61.82-1,67.29,0,20.83,3.68,23.7,8,29.45,9.29a27.19,27.19,0,0,0,6.06.25c12.37-1,57.16-56.75,60.54-60.94a221.72,221.72,0,0,1,44.51-41.54c17,32.83,19.89,59.14,19.24,77.32-.88,25-8.28,60.27-8.85,91.21a165.24,165.24,0,0,0,1.66,25.59c1.69,12.49,3.54,18.59,8.13,49.77,4.76,32.35,7.14,48.52,6.54,54.65-4.51,46.17-45.81,79.66-53.27,85a123.19,123.19,0,0,1-45,20.27c-3.4.75-19.26,4.06-41.32,1.66-32.11-3.48-34.57-14.41-58.81-16.62-24.4-2.21-25.09,8.57-63.58,13.3-19.27,2.37-39.6,4.86-63.58-3.32-4.81-1.65-28.22-10-49.27-33.24C24,364.64,19.3,327.1,20,315.31c.27-4.54.94-9,.94-9,2.19-12.49,7.55-19.72,13.08-55.18a407.5,407.5,0,0,0,4.67-43.37,226.24,226.24,0,0,0-.14-26c-2.34-35.51-7.39-57-9.2-73.74C27.26,88.86,28.76,60.82,46.27,24Z" transform="translate(-14.92 -15.38)"/><path class="b" d="M259.3,259.41c4.35-12.26,6.58-18.5,9.46-24,5.08-9.76,9.56-18.36,19.14-24.3,6.51-4.05,12.53-5.09,20.44-6.47,12.8-2.22,16.85,0,29.26-1.74A90,90,0,0,0,359.2,197c-.63,3-1.51,7.62-2.28,13.31-1.77,13.07-.84,16.32-2.28,22.79-2.61,11.71-9.79,19.54-12.92,23A61.35,61.35,0,0,1,314.37,273c-13.11,4.14-18.06,1.22-39.37,4.06a195.14,195.14,0,0,0-23.17,4.51C253.52,276.28,256,268.62,259.3,259.41Z" transform="translate(-14.92 -15.38)"/><path class="b" d="M178,259.64c-4.29-12.28-6.49-18.53-9.35-24.08-5-9.78-9.48-18.4-19-24.39-6.5-4.08-12.51-5.16-20.42-6.57-12.78-2.29-16.85-.12-29.25-1.89a90.33,90.33,0,0,1-21.57-5.94c.61,3,1.48,7.62,2.22,13.32,1.71,13.07.76,16.32,2.18,22.8,2.55,11.72,9.69,19.58,12.81,23a61.47,61.47,0,0,0,27.28,17c13.09,4.2,18.05,1.31,39.35,4.25a197,197,0,0,1,23.15,4.62C183.74,276.54,181.26,268.87,178,259.64Z" transform="translate(-14.92 -15.38)"/><path class="c" d="M374.09,244.64c-16.34,33.9-38,47.68-47.23,52.67A155.37,155.37,0,0,1,286.52,312c-14.79,2.61-26.62,1.82-26.65,2.92s11.95,3.31,25.15,2.54a94.26,94.26,0,0,0,57.69-24.54C361.62,276.15,370.23,256.13,374.09,244.64Z" transform="translate(-14.92 -15.38)"/><path class="c" d="M281.76,334.88c-4.9-.37-15.31-1.14-15.6.47-.36,2,14.72,6.48,19.19,7.77,11.18,3.22,19.67,5.66,31.49,6.59,5.14.41,18.94,1.49,32.81-1.89,32-7.8,52.14-36.4,52.1-36.45a113,113,0,0,1-20.36,16.32,97.37,97.37,0,0,1-21,10.57c-15.53,5.34-28.78,4.14-38.52,3.15C306.65,339.87,302.52,336.42,281.76,334.88Z" transform="translate(-14.92 -15.38)"/><path class="c" d="M259.91,350.23c-.67,1.48,8.94,7.66,15.41,11.26a113.69,113.69,0,0,0,23.37,9.75c12.9,3.78,25.77,7.55,41.87,6C364,375,381.93,362.56,381.83,362s-17.69,11.39-40.78,11.35c-16.11,0-31.47-5.89-36.72-7.89-6.68-2.55-8.21-3.82-18.69-7.8C279.78,355.46,260.8,348.24,259.91,350.23Z" transform="translate(-14.92 -15.38)"/><path class="c" d="M72.07,244.4c16.22,34,37.82,47.84,47,52.87a155.82,155.82,0,0,0,40.29,14.83c14.77,2.67,26.6,1.93,26.63,3s-12,3.27-25.16,2.44a94.27,94.27,0,0,1-57.59-24.77C84.42,276,75.89,255.91,72.07,244.4Z" transform="translate(-14.92 -15.38)"/><path class="c" d="M164.32,331.18c4.9-.4,15.31-1.25,15.61.36.36,2-14.69,6.59-19.15,7.91-11.15,3.3-19.63,5.8-31.44,6.82-5.13.44-18.93,1.63-32.82-1.66-32-7.57-52.38-36-52.34-36.07a112.52,112.52,0,0,0,20.47,16.17,97.6,97.6,0,0,0,21,10.42c15.57,5.23,28.81,3.93,38.55,2.88C139.47,336.35,143.58,332.88,164.32,331.18Z" transform="translate(-14.92 -15.38)"/><path class="c" d="M192,348.09c.75,1.44-8.49,8.21-14.74,12.21a114,114,0,0,1-22.76,11.21c-12.66,4.59-25.29,9.17-41.45,8.63-23.54-.79-42.14-12-42.07-12.57s18.32,10.26,41.36,8.75c16.08-1.05,31.07-7.86,36.2-10.19,6.52-3,8-4.33,18.21-9C172.41,354.57,190.94,346.17,192,348.09Z" transform="translate(-14.92 -15.38)"/><path class="d" d="M256.64,230.24A84.38,84.38,0,0,1,271,212a81.48,81.48,0,0,1,19.86-14.13" transform="translate(-14.92 -15.38)"/><path class="d" d="M182.73,230.24A84.29,84.29,0,0,0,168.43,212a81.5,81.5,0,0,0-19.87-14.13" transform="translate(-14.92 -15.38)"/><path class="e" d="M238.36,365.68c5.35,1.16,10,4.91,9.54,6.65-.6,2.29-9.36-1.48-14.31,3.32s-1.34,13.71-6.35,16.62a6.59,6.59,0,0,1-6.36,0c-5-2.92-1.37-11.84-6.36-16.62s-13.59-.87-14.3-3.32c-.51-1.74,3.42-5.32,7.94-6.65,5.84-1.72,7.77,1.74,15.9,1.66C231.38,367.28,232.67,364.45,238.36,365.68Z" transform="translate(-14.92 -15.38)"/><path class="e" d="M287.64,177.89c8.88-5.43,15.85-9.11,17.48-10,18.29-9.62,36.3-17.21,36.56-16.62.18.43-8.85,4.6-25.76,14.52-11.79,6.91-17.68,10.37-21.93,13.73-9.4,7.45-11.74,11.79-21.61,17.5-5.91,3.43-13.88,7-14.69,5.66-1-1.57,8.55-9.57,10.87-11.52C272.35,188,277.43,184.13,287.64,177.89Z" transform="translate(-14.92 -15.38)"/><path class="e" d="M282.87,162.94c14.17-14.14,28.43-21.83,28.62-21.53s-9.43,5-19.74,16.22c-7.22,7.84-7.67,11.11-17.23,21.93-5.51,6.24-13.15,14-13.92,13.29s6.93-11.55,7.69-12.59A133.31,133.31,0,0,1,282.87,162.94Z" transform="translate(-14.92 -15.38)"/><path class="e" d="M143.19,172.91c-8.89-5.44-15.86-9.12-17.49-10-18.29-9.63-36.29-17.22-36.55-16.62-.19.42,8.84,4.59,25.75,14.51,11.79,6.92,17.68,10.38,21.93,13.74,9.4,7.45,11.74,11.78,21.61,17.5,5.91,3.43,13.88,7,14.69,5.66,1-1.58-8.54-9.57-10.87-11.53C158.47,183,153.4,179.15,143.19,172.91Z" transform="translate(-14.92 -15.38)"/><path class="e" d="M148,158c-14.18-14.14-28.44-21.82-28.63-21.52s9.43,5,19.74,16.21c7.22,7.85,7.68,11.11,17.23,21.94,5.51,6.24,13.15,14,13.92,13.29s-6.93-11.55-7.69-12.6A134.57,134.57,0,0,0,148,158Z" transform="translate(-14.92 -15.38)"/></svg>