<?xml version="1.0" encoding="utf-8"?>
<!-- Generator: Adobe Illustrator 23.0.0, SVG Export Plug-In . SVG Version: 6.00 Build 0)  -->
<!DOCTYPE svg PUBLIC "-//W3C//DTD SVG 1.1//EN" "http://www.w3.org/Graphics/SVG/1.1/DTD/svg11.dtd" [
	<!ENTITY ns_extend "http://ns.adobe.com/Extensibility/1.0/">
	<!ENTITY ns_ai "http://ns.adobe.com/AdobeIllustrator/10.0/">
	<!ENTITY ns_graphs "http://ns.adobe.com/Graphs/1.0/">
	<!ENTITY ns_vars "http://ns.adobe.com/Variables/1.0/">
	<!ENTITY ns_imrep "http://ns.adobe.com/ImageReplacement/1.0/">
	<!ENTITY ns_sfw "http://ns.adobe.com/SaveForWeb/1.0/">
	<!ENTITY ns_custom "http://ns.adobe.com/GenericCustomNamespace/1.0/">
	<!ENTITY ns_adobe_xpath "http://ns.adobe.com/XPath/1.0/">
]>
<svg version="1.1" id="Layer_1" xmlns:x="&ns_extend;" xmlns:i="&ns_ai;" xmlns:graph="&ns_graphs;"
	 xmlns="http://www.w3.org/2000/svg" xmlns:xlink="http://www.w3.org/1999/xlink" x="0px" y="0px" viewBox="0 0 100.4 18.7"
	 style="enable-background:new 0 0 100.4 18.7;" xml:space="preserve">
<metadata><?xpacket begin="﻿" id="W5M0MpCehiHzreSzNTczkc9d"?>
<x:xmpmeta xmlns:x="adobe:ns:meta/" x:xmptk="Adobe XMP Core 5.6-c145 79.163499, 2018/08/13-16:40:22        ">
   <rdf:RDF xmlns:rdf="http://www.w3.org/1999/02/22-rdf-syntax-ns#">
      <rdf:Description rdf:about=""
            xmlns:xmp="http://ns.adobe.com/xap/1.0/"
            xmlns:xmpGImg="http://ns.adobe.com/xap/1.0/g/img/"
            xmlns:xmpTPg="http://ns.adobe.com/xap/1.0/t/pg/"
            xmlns:stDim="http://ns.adobe.com/xap/1.0/sType/Dimensions#"
            xmlns:stFnt="http://ns.adobe.com/xap/1.0/sType/Font#"
            xmlns:xmpG="http://ns.adobe.com/xap/1.0/g/"
            xmlns:dc="http://purl.org/dc/elements/1.1/"
            xmlns:xmpMM="http://ns.adobe.com/xap/1.0/mm/"
            xmlns:stRef="http://ns.adobe.com/xap/1.0/sType/ResourceRef#"
            xmlns:stEvt="http://ns.adobe.com/xap/1.0/sType/ResourceEvent#">
         <xmp:CreatorTool>Adobe Illustrator CC 23.0 (Windows)</xmp:CreatorTool>
         <xmp:CreateDate>2020-09-03T02:07:26+07:00</xmp:CreateDate>
         <xmp:MetadataDate>2020-09-03T02:07:26+07:00</xmp:MetadataDate>
         <xmp:ModifyDate>2020-09-03T02:07:26+07:00</xmp:ModifyDate>
         <xmp:Thumbnails>
            <rdf:Alt>
               <rdf:li rdf:parseType="Resource">
                  <xmpGImg:width>256</xmpGImg:width>
                  <xmpGImg:height>60</xmpGImg:height>
                  <xmpGImg:format>JPEG</xmpGImg:format>
                  <xmpGImg:image>/9j/4AAQSkZJRgABAgEBLAEsAAD/7QAsUGhvdG9zaG9wIDMuMAA4QklNA+0AAAAAABABLAAAAAEA&#xA;AQEsAAAAAQAB/+4ADkFkb2JlAGTAAAAAAf/bAIQABgQEBAUEBgUFBgkGBQYJCwgGBggLDAoKCwoK&#xA;DBAMDAwMDAwQDA4PEA8ODBMTFBQTExwbGxscHx8fHx8fHx8fHwEHBwcNDA0YEBAYGhURFRofHx8f&#xA;Hx8fHx8fHx8fHx8fHx8fHx8fHx8fHx8fHx8fHx8fHx8fHx8fHx8fHx8fHx8f/8AAEQgAPAEAAwER&#xA;AAIRAQMRAf/EAaIAAAAHAQEBAQEAAAAAAAAAAAQFAwIGAQAHCAkKCwEAAgIDAQEBAQEAAAAAAAAA&#xA;AQACAwQFBgcICQoLEAACAQMDAgQCBgcDBAIGAnMBAgMRBAAFIRIxQVEGE2EicYEUMpGhBxWxQiPB&#xA;UtHhMxZi8CRygvElQzRTkqKyY3PCNUQnk6OzNhdUZHTD0uIIJoMJChgZhJRFRqS0VtNVKBry4/PE&#xA;1OT0ZXWFlaW1xdXl9WZ2hpamtsbW5vY3R1dnd4eXp7fH1+f3OEhYaHiImKi4yNjo+Ck5SVlpeYmZ&#xA;qbnJ2en5KjpKWmp6ipqqusra6voRAAICAQIDBQUEBQYECAMDbQEAAhEDBCESMUEFURNhIgZxgZEy&#xA;obHwFMHR4SNCFVJicvEzJDRDghaSUyWiY7LCB3PSNeJEgxdUkwgJChgZJjZFGidkdFU38qOzwygp&#xA;0+PzhJSktMTU5PRldYWVpbXF1eX1RlZmdoaWprbG1ub2R1dnd4eXp7fH1+f3OEhYaHiImKi4yNjo&#xA;+DlJWWl5iZmpucnZ6fkqOkpaanqKmqq6ytrq+v/aAAwDAQACEQMRAD8A71DbapLdX/mawZ5bxbqa&#xA;2/R7NSOa0s3MBhAPwrJ6sckkb+LcSeJ22spwEY4ZbR4QeLulL1X7qIBHlfMOIBIkzHO6ryG37Qyf&#xA;T7+11CyivLV+cEy8kNCCOxVgd1ZSKMDuDtmuy4pY5GMuYcmEhIWERlbJ2KoPVtUg0yzNxKrSOzCO&#xA;3t4xWSaV9kjjHdmP0AbmgBOXYMJySofE9AO8/j7WGSYiLSRY9dstS03UtRuy5vZWtLyxjY/VYFlQ&#xA;tD6YoCzpJGqF23bmTsKKMy8U4ShAfSLB/iNc78iDddKHmWmpRkJE89iOg7vx5snzWuS7FUk81+ab&#xA;Xy/ZLLInrXExK28ANORHUk9lFRmbodFLUSobAcy6ftjtiGixiRHFKX0j8dAxvyr+YWsavr0VjNaQ&#xA;i3l5nlEH5oFBILEswI7HYZstb2Vjw4jMSNjvrd0PY/tNn1WpGKUI8Mr5XY9+/wAOjP8ANA9s7FXY&#xA;q7FXYq7FXYq7FXYq7FXYq7FWL+ZvN1xo+uaZYJCjwXZU3EjV5BWfh8FCBUdd82ej0AzYpzJ3jyed&#xA;7W7blpdTixCIMZ8z7zWzKM1j0TsVdirsVdirsVdirsVYt5L833Wv3GoRTwpELZlMJStSjFhRqk7j&#xA;j1GbTtHQRwCJBu+bzfYXbc9bPIJRA4OVdxvn5pl5Y+C0vIG+3DqF7z/57XLzr/wky5jazeUT3wj9&#xA;kRH7w77DyI/pH77Y7J5j0uw1hLvRLiOe01Ob0761LBIReH4RRz/cXD03jlCiTsQ9eWeNJOePhyAi&#xA;UBsevD7v4ojvjfD/AFeWOc0YyuJ2lz9/6D5Hn72QrN5tn+IW1lZL1AklkuHp/lBEiVT8mbMAxwR6&#xA;yl8AP0n7g5F5D0A+1ZcXvmawhe5uYrG4tYlLzusz2pRF3Zv3okjNBv8AE6jJQx4ZmomYkeW3F91H&#xA;7CgynHc1XyQHl68s9VvrfWL+6iN/cpJ+h9OLFfStwaNJEkgR5XkAq0oWnHZfh3a7VY5YonHEHhFc&#xA;cu89xrkB0j3899hDFISIkTueQ8vx1+SZeZvjgsLcfan1C04+P7mUXBp/sYTmPpNjI90JfaOH9LZm&#xA;5Af0h+tOMxG52KvNfOFv+mPzAsNLkJMCpGrqP5Tykf6SudJoJ+DpJZBz3/UHz/tvF+a7Ux4T9ND9&#xA;Mj9j0eC3gt4UggjWKGMcUjQBVA8ABnOykZGybL3uPHGERGIqI6BfkWbsVdirDPzO1XU9PsLFrG4e&#xA;3LzHm0Z4k8VqASO3iM3PY2CGScuIXs8n7WazNgxQOORjcunky2xmaeyt52+1LGjt82UHNTkjwyI7&#xA;i9Np8hnjjI9Yg/YrZBudirsVdirsVdirsVec/mWK+YNEUbEnr85Fzoux/wC5yfjo8H7V/wCNYPx/&#xA;EHo2c6947FXYq7FXYq7FXYq7FXnH5SUN1q7df7mh9iZM6Pt36YfH9DwXsX9eb/N/3yfy6q+kWnnH&#xA;VUg+sGwuDc+hy9PmItNtnYcqNTYHtmujh8WWCF1xCr9+SYezM+ATl3G/9iHkXmv80/yx826fKLiy&#xA;vtK1uWFo01GNIyoIFVjnZH5SxclGzIadRQ751ei7G1ulmKlCeMH6d/mLGx+Lqc+twZRuDGXf+vvD&#xA;138tNTu9Q8m6e97dre3sSelPOCeTU3jMlf2zEVJIJDfaDMDU8p2vhjDUSERwxPIffXld91cqHJ22&#xA;jmZYxZssP/PfV7q2i0q0kvVstHeT178LR55TG6+mqxkEFVPxHltWmzUpm29m8EZGchHiyVUe4d+/&#xA;6vmLtxO08hFC6j1SbRfzr8gaWyWnlzRb+71O+lSOW4uygmuJHYKGluC88j7nYU27AZl6j2f1WT1Z&#xA;skIwiOUboe6NANOPtHFHaESZHv6/Hd61rlP0n5e/7aElP+kC6zl9P9GT+oP93B2uT6o/1v8AelN8&#xA;xG5j3nXUPMNlp0TaJA81xJJxkaOMzMi8SahAG79yM2HZ2LDOZ8U0K76dH29qdVixA6aJlInehxUP&#xA;c8u/SPmtvMgu+Mx15duPoD1R+74/3PCn93/k++dP4WDweHbwvftz777/ADfOfzWtOr8T1fmf6vq+&#xA;mvpr+b5ebOvJ8/n59X/3MLJ9QdGaQzKi0b9njxAI37Zo+0I6QY/3dcXlb2PYeTtM5/8ACAfDIN2A&#xA;PdX6k682+bLXy/aKzL615NUW8FadOrMeyj8cw9DoZaiXdEcy7ftrtmGigDXFOXIfpPkwH/HPn6VG&#xA;1CNWFitSxS2BgFPFypP/AA2b3+TdIPQfq/rb/L9jxX+iDtOQ8UA+H5Q9Pzr/AHzMNJ8zarr3lS9u&#xA;rKD0tUhDRIE+wz8Qapy70PQ5qM+jx4M8YyNwO/8Aa9To+1s2s0U5441mjY8r8r+5555iuvOD28UG&#xA;urOIInPpNNEFHMiu0gUctvfOh0kNOCTiqz3H9Dw3ambXmIjqRLhB2uPX+tW/zTzQ7r8yZZ7GVBOb&#xA;LlGoDoiRmIUHQgfDx7/TmDqYaICQNcW/vt2/Z+XtaUoSHH4fp5gAcP6q6/F6nnLvpDsVYH5n/MG9&#xA;h1JtI0KATXSN6bzFS5Mg6rGg6kdKn7s3ui7KiYeJlNR/HMvF9re0uSOY4NNHimDV89+6I/HuYn5m&#xA;sPOUVvBqeuSv8cgWFS4qjkFgQifCnTtm10eXTEmGIdO79fN5rtbT6+MY5tSTudt+R58hsHr9veJ+&#xA;jIrydvTQwrNKzbcRx5En5ZyU8Z4zEd9PqOLOPBGSWw4bPyt5tf8An7zXql/Kvl+KRbWL7KRQCaQr&#xA;WgZ6q9K+2dHi7LwYoDxiOI95r5cngdT7R63UZSNKDwDujxH3nYp95L8732q3z6XqVuI7tELrIgK/&#xA;ZpUOh6HfMDtHs2OKPHA+l3XYPb+TU5DhzRqYF2NvmEu/Ml1TzFojuQqKQWY7AASipOZPY4vDkH45&#xA;Ov8AaqQGrwE8v+PBDat+YXmHUb57fy5C4giJo8cXrSuB+0VKsFXw2yzB2VhxxvMdz50GjW+0uqz5&#xA;DHSA8I7o8Uj58jQ+DIfIHmy71uC4t78Kby14kyKOPNWqKlRsCCO2a/tTQxwkGH0yd57N9sz1cZRy&#xA;/XDr3j9aP83+a4PL9krhBNeT1FvCTQbdWanYVyjQaE6iVcojm5vbfbMdFjBrinL6R+k+TAv8defI&#xA;wuoyI31AkU5W4Fua7U9TiG3/ANfN7/JmlPoH1/1t/l+x4v8A0Q9pRrKR+6/qen51f+yeleX9ag1n&#xA;Sob+IcPUFJI+vB12Zc5vVac4chgXv+zdfHVYI5Y7XzHceoY1508+y6XdfozS0WW9FPWkYcghbcKF&#xA;HVjmy7O7LGWPHPaLoO3vaOWnn4OEA5Op515V3pFY+fvNmmX0Q16J3tZqVWaAQuFru8dFStPeuZ2X&#xA;svT5Ynwj6h3G/nzdLp/aPXafIPzIJhL+dHhNd42D1GORJI1kQ8kcBlYdCCKg5zBBBovo0ZCQBHIv&#xA;OfyfX4tWbwEA+/1P6Z0Xb5+j4/oeD9iBvlP9T/fJ19Qu9X8oa39UKmfVp7t4kegSaJZDCkbHsk8E&#xA;KqWG4VqjfMHxY4tRj4uUBH4GrJ98ZH5h7PhM8cq/iv8AV9ofO/8Ayp3zPqMsr+XETUYI3KT27yxQ&#xA;XVrIDQw3MUrR8XU7VWqt1Gd9/L2HGB43oPQ0TGXnEi9vtHJ57+T5y+jf7x5F7h+R+n+ZNI8t3Oia&#xA;/p8lldWE/wDo8jheMkEo5KFkQsHKPy77AgZxntFlw5cwyYpCQkN/Ijy6Xs7vs2E4QMZiiGN/nn5Y&#xA;87+bNcsdN0LS5LiwsofVmuSyQo80hNF5ysiv6aDanTkc2Ps5rNNpcUp5Z1KR5c9h7u/9AcbtLDly&#xA;yEYDYML8tflbq3lzWbDUfMcaDUUmVtH8vQypLc3lyh5RlvTLpHAjDlI5OwGbfV9s49RjlDCfRXrm&#xA;QRGI68+cjyA73Dw6KWOQM+fSPUn9Xe991OG8tNJ0ea9n+s31ld2fr3AAQPJO4tJWAAFFpcNt4Zw2&#xA;GUZZJiIqMoyoe71D/cu+mCIxJNkEfbt+lkOYDkOxV53a0/5W5cb/ALJp/wBIy50M/wDjPH4/ieFw&#xA;/wDG5L3f7wPRM557p5bLaDzL+ZE9vcnlaWrMrp/xXb/Dx/2T9fnnURn+W0YMfql95/Y+cTw/n+1p&#xA;Rn9ECflDavifvZz5rUQ+VdRSFQirbOqqooAvGlAB2pmj0JvPG/5z2XbA4dFkEdhwH5JV+VycfK4P&#xA;888h/UP4ZldtH9/8A632RjWj98j+hC/m0B+g7Ru4ugPvjf8AplvYX97L+r+kON7aD/Bof1/96WUe&#xA;XW5eX9MbxtID/wAk1zWasfvp/wBY/e9F2Yb0uI/7XH/chMMx3Odirx2S61jyj5nu7p7RJDK8gjkm&#xA;VirRu/LlGwI3IGdgIY9XgjES5Vy7/N8rlmz9mayczAHiJokGiCbuJ72ZaD520PzIyaff2qR3THkk&#xA;EwWWJ2XpwLD7XsR8q5ptV2dl0/rgbj3jYvV9ndv6bXkYssAJ90qlEny8/h7ra/NDUntPL6WsR4te&#xA;yCNqbfu0HJvxoMPYuHjzcR/hH2o9rtWcWlEB/lDXwG5/QnHlHQ49H0O3twtLh1Et03cyMKkH/V+y&#xA;Mw9fqTmyk9OQ9ztOxezxpdNGFeo7y95/VyTRbW1W4a5WFBcuoR5woDlR0UtStMxTOVcN7dzshhgJ&#xA;mYA4ztdb173m/wCbKPJqmmxoOTvGyqo7kuABnR9hGoTJ73gfbOJlmxAcyD97N/K+gwaJpENoij1y&#xA;A1zIOryHrv4DoPbNLrdUc2QyPLp7nr+yOzo6TAID6v4j3n8cmI+Rii+etfjTZOU/EDpRbgAfrzbd&#xA;pb6XGT5f7l5j2eIHaWoA5ev/AHaE1qH9O/mZFp83xW0BVCvbhHH6rj/ZGoy3Ty8DRGY+o/pNOLr4&#xA;fnO1xil9EaHwA4j8+T0e9soLqxmspEBhljMRSmwBFPwznceQxmJDmC97n08cmM4yPTIUwb8prsrp&#xA;upxsf3cDpL7fEpr/AMQzeduw9cD37fj5vHexmasOUHlEg/MH9SC/LW0Gqa9qGs3Y5yxHknLekk5Y&#xA;8h/qhSPpy7tjJ4WKOOPI/cHE9lcP5jU5NRPcx++V7/CvtZJ+ZlpFN5VnmdQZLV45I27gs4jP4Pmu&#xA;7HyEZwP51/dbv/avBGeilI84GJHzr9KN8lXLS+UtPlbcrEU38I2KD8FyjtGFaiQ8/vcvsHKZaHHI&#xA;/wA37iR+hi35Pg01Y9j9XH3epm07f/g/zv0POexA/vf8z/fJhpdr5ij8v6TfaFcobmytY7C/0e8Z&#xA;hbSvaVhkVHAZoJVkVlDAENtyHQjGzTwnLOOUbSkZRlHmOLcf1hVbcx0L18Iz4ImB3Aog8tvuKQ+Y&#xA;7PWtVm/Sd15Mm0rVYFo+tQavb2rog2BM0TAyKAOjjYZm6TJjxDgjnE4H+A45S+w8vg0ZoykeI4+G&#xA;XfxAJ3+W2vJNpdyL3VWv5YZQkt20rS2qMdhDHdPFAsrj9rjUbjfMPtbTVMcMOEEcqqXvMQZUPe3a&#xA;PLcTZv7vddC1H8zteWzs7Ce1vbhFuXeJDa3f1KJz0p9Z+r3MQcb0Dunfc0yfY+m45SEojbfePEf9&#xA;LxRNe4SRrctAEE79xr7aI+5LfKlxFpga90jyffX2q3gAm1SS6iuTL/0ezuPg/wBXb2zI1sTk9OTN&#xA;CMI/w8JjX+YBz97XgPDvGBMj1u/tKeXDazdaDdXuqXUL3V9LDa2On2T+pb28hnVVX1KBpZVk3keg&#xA;ChTQAAk4URjjlEYA8MQSZS2JFd3QVyHW+fJuPEYEyO52AHIb/f3s1zTua7FXnVu1PzdlHiCP+nUH&#xA;OimP9bx+P4ng8R/19P4/yb0XOde8eYaVdw6R+Zl+LtxFHcyTLzbZR6zCVKk+O2dPngc2ijw70B9m&#xA;z53o80dL2vk4zQmZb/1vUGbebr2wt/Lt8t1MkYngkjhBO7OyEKFHU7nNJoMc5Zo8IuiHru28+KGl&#xA;yCcgOKEgPMkbUkv5VXSS+XZIAfjt52DL7OAwP68ze24EZge8Op9j8wlpTHrGZ+1r82B/zrlvv0u0&#xA;/wCTcmPYf98f6v6Qj2y/xSP/AAwf7mTIPKzV8t6Wa1/0WEfcgGYGt/vp/wBY/e7zsg3pMX/C4/cm&#xA;mYrsVs00UMTzSsEijUvI7bAKoqScMYkmhzLGcxCJlI0BzQWn6to+sWxe0njuoT9pKb7U+0jAMPpG&#xA;XZcGTDL1AxP46uJptZg1ULxyE4/jmDu81/MKz0rTNbs59I4RXW7zQQ0okiMCjcR9knw9s6TsrJky&#xA;YpDJvHoT9rwHtNgwafUQlgoT5kDoQdjXS+7yTz82beZtO067CnhDKyyDqAZFBFf+AzC7CkBOUe8f&#xA;c7f2zxyOLHPpGRv4/wBjLtH1vT9VsEvLWVWUqDKlRyjNN1cdqZqNRpp4p8Mh+16jQ6/FqcQyQI5b&#xA;+XkULa+b9Du9a/RFtMZbnixEiCsRKipUNXc038PfLZ6DLDH4khQ+1xsPbemy6jwIHin3/wAO3S/w&#xA;PNiX5j1bzPoif6lPplGbbsj+4yfjo8z7U76zAPd/uno2c694838p1t/zK1eLp6n1mg9jKsg/DOj1&#xA;3q0UD3cP3U8D2N6O180e/j/3QKlqdwmh/met5c/Ba3HFi56BJY/TLfJXByeGBz6Hhj9Q/Qb+5q1e&#xA;QaPtjxJ7Ql90o8N/As513X7HStJkvpJk3Q/VgCD6jkfCF8c0em0ssuQRA9/k9l2j2lj02A5CRy9P&#xA;melMZ/K3THGg3k8got7IUT3RF41/4JiM2Xbeb97ED+EPPeyGkI005HlkNfAbfeSlv5Z38Wm6rqGk&#xA;XrCGeRgE5GlZISysm/c12+WZPbOI5McckdwPuLr/AGT1I0+bJgyHhkeXvjYITf8AM/W7SHRm0pZA&#xA;13dMheIblY0YPybwqVFMxOxdNI5PEr0x+/k7T2t7QhDTnCD65kbdwBtO9BspNO8p21vKOMkVsWkX&#xA;uGYF2H0E5harIMmoJHIydx2dgODQxgeYhv8AHdi35QL+41RvFoR9wf8Arm07fO8Pj+h5v2JHpynz&#xA;j/vk/wBY0kW811MbEapo2olW1TTCokZJFAAuIY2+39leaDeo5L8VQ2vwZ+IAcXBkh9MuW380n7j8&#xA;Dty7HJCr24onmP0pRF5f/Ke9dZZZIrn0WB+qXt7cSLEw/Za0uZSsZH8rIMyjqtdDYAi+sYx3/wA6&#xA;I3+bUMWnl5+8n7iUbq0/kjVNMTTLUxXYg+KyXTIfrf1aQAhXAgV0jpXoxAI275Tgjqcc+OVxvnxn&#xA;h4h/nbn4cmeQ4pR4Rv3VvXyVdCk8l2enDQgI7flT17S/i+rSXElAGlaOZUEpYgVZQRkdSNROfi7n&#xA;uMTYj5WLr4pxHGI8P37X+tAXfln8p7CZmezs0lnqfqNuWYzey2cJPqfIRnL4azXTH1SodT0/zjy+&#xA;bXLDp49B7v2JxpGmT3F1BfXVqun2VipXR9KUKvpBl4maVUPAOVJVEX7Ck92+HEz5hGJjE8UpfVLv&#xA;8h1rqT1Pu3uxwJIJFAcgyDMByHYqwbTtG1T/AJWVeahNbuloqsyXBHwMGQIoDdCfbN5m1GP8lGAP&#xA;q7vi8bpdDm/leeWUSIb79DsAN2c5o3smK+cPIkGvSLdwSi2vlUIzMKpIo6cqbgjxza9n9pnAOEi4&#xA;/c81257Ox1hE4nhyD5H3/rSDSPymnFwH1a6jMCmvpWxYlvYsyrx+gZn5+3RX7sG/N0ui9jJcV55j&#xA;h7o3v8SBTIfKnk+bQNTv5UuA9hcBRBFvzFCSOddvhrTbrmu12vGeEQR6hzd72P2JLRZshErxy5Dr&#xA;8fdy80T518u3OvaQlpbSpFNHMsymSvE0VlIJUMR9uvTK+ztXHBk4pCxVN/b3Zk9bgGOBAkJCW/Lk&#xA;R+lNtLslsNNtbJTyFtEkXLpXgoFfpzFzZOOZl3m3Z6TTjDijjH8EQPkETlTkKV3aw3drNazryhnR&#xA;o5F6VVhQ5OEzGQkOYa82KOSBhL6ZCj8Xm2oflJfCUnT72J4idhcBkYD5oHB+4Z0eLt2NeuJvyeA1&#xA;PsXkEv3U4mP9Kx9wN/YmHlz8rxZ3kV5qlwk7QsHS3iB4FlNRyZgCR7UzH1fbXHExxir6lzey/ZHw&#xA;sgyZpCXDvwjlfmT+pm2o6faajZS2d2nqQTDi69/EEHxB3GaXFlljkJR5h6/VaaGfGccxcZPOL78p&#xA;NRE5+o3sL25O3r8kcD/Yq4P4Z0ePt2FeuJvyeC1HsXlEv3c4mP8ASsH7Af0Mo8p+RbHQX+tPIbm/&#xA;ZSvqkcUQHqEXf7z+GavXdpyz+kDhg9F2N7PY9GeMnjyd/Qe4fp+5rzB5RuNV8y6bqizottacPWia&#xA;vI+m5kHGgp8VaGvTHS68YsM4V6pcviKXtLsWep1eLNxAQhVjrsb29/JlGax6Jh0PlfVIfzCbWEVR&#xA;psiszvyFeTRcCnH7VefxdKUzcS1uM6Pwz9f7b+55WHZGaPah1A/uiOf+bVVz579yaea/Kdn5gtVV&#xA;29G7hr6FwBWleqsO6nMXQ66WnltvE8w7HtnsbHrYAE8M48pfoPkw2x/KTUDcj69eQrag7mHk0hHh&#xA;8SqF/HNxk7dhw+mJ4vN5TT+xeXj/AHk48H9G7+0Cvtek2dpb2drFa26COCFQkaDsBnOZMhnIyPMv&#xA;f4MMcUBCAqMRQYl5v/LyPWLk39hKtteP/fI4PpyECgaoqVPjtm20Haxwx4Ji4/aHmO2/Zkaqfi4i&#xA;I5DzvkfPyKD8t/lgbO9ju9WnjnMLBo7eLkULDoWZgp28KZdrO2uOJjjBF9S4vZXsl4WQZM8hLh5R&#xA;HL4k18qZ5PF6sEkVaeopWvhUUzRRlRBezyQ4omPeGO+R/Kt15ftbqO5ljlkuJAwMVaBVFBXkBvvm&#xA;w7S1sdRIGIIADovZ/seeihMTIJkencGS5rXoFOW2t5iDLEkhGwLKGp9+SjMjkUEAqnTYZFKye3gu&#xA;IzFPGksZ6o6hlP0HJRkYmwaQQDzU7WwsbQEWtvFbhvtCJFSvz4gYZ5ZS+ok+9EYgcgr5Bk7FXYq7&#xA;FXYq7FXYq7FXYq7FXYq7FXYq7FXYq7FXYq7FXYq7FXYq7FXYq7FXYq7FXYq7FXYq7FXYq7FXYq7F&#xA;XYq7FXYq7FXYq7FXYq7FXYq7FXYq7FXYq7FXYq7FXYq7FXYq7FXYq7FXYq7FXYq//9k=</xmpGImg:image>
               </rdf:li>
            </rdf:Alt>
         </xmp:Thumbnails>
         <xmpTPg:MaxPageSize rdf:parseType="Resource">
            <stDim:w>100.387097</stDim:w>
            <stDim:h>18.677419</stDim:h>
            <stDim:unit>Pixels</stDim:unit>
         </xmpTPg:MaxPageSize>
         <xmpTPg:NPages>1</xmpTPg:NPages>
         <xmpTPg:HasVisibleTransparency>False</xmpTPg:HasVisibleTransparency>
         <xmpTPg:HasVisibleOverprint>False</xmpTPg:HasVisibleOverprint>
         <xmpTPg:Fonts>
            <rdf:Bag>
               <rdf:li rdf:parseType="Resource">
                  <stFnt:fontName>ComicSansMS</stFnt:fontName>
                  <stFnt:fontFamily>Comic Sans MS</stFnt:fontFamily>
                  <stFnt:fontFace>Regular</stFnt:fontFace>
                  <stFnt:fontType>Open Type</stFnt:fontType>
                  <stFnt:versionString>Version 5.14</stFnt:versionString>
                  <stFnt:composite>False</stFnt:composite>
                  <stFnt:fontFileName>comic.ttf</stFnt:fontFileName>
               </rdf:li>
            </rdf:Bag>
         </xmpTPg:Fonts>
         <xmpTPg:PlateNames>
            <rdf:Seq>
               <rdf:li>Cyan</rdf:li>
               <rdf:li>Magenta</rdf:li>
            </rdf:Seq>
         </xmpTPg:PlateNames>
         <xmpTPg:SwatchGroups>
            <rdf:Seq>
               <rdf:li rdf:parseType="Resource">
                  <xmpG:groupName>Default Swatch Group</xmpG:groupName>
                  <xmpG:groupType>0</xmpG:groupType>
               </rdf:li>
            </rdf:Seq>
         </xmpTPg:SwatchGroups>
         <dc:format>image/svg+xml</dc:format>
         <xmpMM:DerivedFrom rdf:parseType="Resource">
            <stRef:instanceID>xmp.iid:e919463f-37c9-c84e-b906-6df936fa4d13</stRef:instanceID>
            <stRef:documentID>xmp.did:e919463f-37c9-c84e-b906-6df936fa4d13</stRef:documentID>
            <stRef:originalDocumentID>xmp.did:9a9d2307-8b08-d84c-8126-77bfe3bc344a</stRef:originalDocumentID>
         </xmpMM:DerivedFrom>
         <xmpMM:DocumentID>xmp.did:f81813ba-8ba5-0142-ac15-1f33694b1476</xmpMM:DocumentID>
         <xmpMM:InstanceID>xmp.iid:f81813ba-8ba5-0142-ac15-1f33694b1476</xmpMM:InstanceID>
         <xmpMM:OriginalDocumentID>xmp.did:9a9d2307-8b08-d84c-8126-77bfe3bc344a</xmpMM:OriginalDocumentID>
         <xmpMM:History>
            <rdf:Seq>
               <rdf:li rdf:parseType="Resource">
                  <stEvt:action>saved</stEvt:action>
                  <stEvt:instanceID>xmp.iid:9a9d2307-8b08-d84c-8126-77bfe3bc344a</stEvt:instanceID>
                  <stEvt:when>2020-09-03T01:42:03+07:00</stEvt:when>
                  <stEvt:softwareAgent>Adobe Illustrator CC 23.0 (Windows)</stEvt:softwareAgent>
                  <stEvt:changed>/</stEvt:changed>
               </rdf:li>
               <rdf:li rdf:parseType="Resource">
                  <stEvt:action>saved</stEvt:action>
                  <stEvt:instanceID>xmp.iid:f81813ba-8ba5-0142-ac15-1f33694b1476</stEvt:instanceID>
                  <stEvt:when>2020-09-03T02:07:26+07:00</stEvt:when>
                  <stEvt:softwareAgent>Adobe Illustrator CC 23.0 (Windows)</stEvt:softwareAgent>
                  <stEvt:changed>/</stEvt:changed>
               </rdf:li>
            </rdf:Seq>
         </xmpMM:History>
      </rdf:Description>
   </rdf:RDF>
</x:xmpmeta>
                                                                                                    
                                                                                                    
                                                                                                    
                                                                                                    
                                                                                                    
                                                                                                    
                                                                                                    
                                                                                                    
                                                                                                    
                                                                                                    
                                                                                                    
                                                                                                    
                                                                                                    
                                                                                                    
                                                                                                    
                                                                                                    
                                                                                                    
                                                                                                    
                                                                                                    
                                                                                                    
                           
<?xpacket end="w"?>
	</metadata>
<g>
	<path style="fill:none;stroke:#004BF4;stroke-width:0.25;stroke-miterlimit:10;" d="M5.6,0.7c0.8,0.8,1.4,1.5,1.7,2
		c0,0,1.8,2.5,2.6,2.6c0.1,0,0.3,0,0.3,0c0.3,0,0.5-0.2,1.5-0.4c1.5-0.2,2.6,0,2.8,0c0.9,0.2,1,0.3,1.2,0.4c0,0,0.1,0,0.3,0
		c0.5,0,2.4-2.4,2.5-2.6c0.4-0.5,1-1.1,1.9-1.7c0.7,1.4,0.8,2.5,0.8,3.2c0,1-0.3,2.5-0.4,3.8c0,0.3,0,0.7,0.1,1.1
		c0.1,0.5,0.1,0.8,0.3,2.1c0.2,1.4,0.3,2,0.3,2.3c-0.2,1.9-1.9,3.3-2.2,3.6c-0.8,0.6-1.6,0.8-1.9,0.8c-0.1,0-0.8,0.2-1.7,0.1
		c-1.3-0.1-1.4-0.6-2.5-0.7c-1-0.1-1.1,0.4-2.7,0.6c-0.8,0.1-1.7,0.2-2.7-0.1c-0.2-0.1-1.2-0.4-2.1-1.4c-1.2-1.3-1.4-2.9-1.4-3.4
		c0-0.2,0-0.4,0-0.4c0.1-0.5,0.3-0.8,0.5-2.3c0-0.3,0.2-1,0.2-1.8c0-0.4,0-0.8,0-1.1C5.1,5.8,4.9,4.9,4.9,4.2
		C4.8,3.4,4.8,2.2,5.6,0.7z"/>
	<path style="fill:#004BF4;stroke:#004BF4;stroke-width:0.25;stroke-miterlimit:10;" d="M14.5,10.5c0.2-0.5,0.3-0.8,0.4-1
		c0.2-0.4,0.4-0.8,0.8-1c0.3-0.2,0.5-0.2,0.9-0.3c0.5-0.1,0.7,0,1.2-0.1c0.2,0,0.5-0.1,0.9-0.2c0,0.1-0.1,0.3-0.1,0.6
		c-0.1,0.5,0,0.7-0.1,1c-0.1,0.5-0.4,0.8-0.5,1c-0.4,0.5-0.9,0.6-1.1,0.7c-0.5,0.2-0.8,0.1-1.7,0.2c-0.4,0.1-0.8,0.1-1,0.2
		C14.3,11.2,14.4,10.9,14.5,10.5z"/>
	<path style="fill:#004BF4;stroke:#004BF4;stroke-width:0.25;stroke-miterlimit:10;" d="M11.1,10.5c-0.2-0.5-0.3-0.8-0.4-1
		c-0.2-0.4-0.4-0.8-0.8-1C9.6,8.3,9.4,8.3,9,8.2c-0.5-0.1-0.7,0-1.2-0.1c-0.2,0-0.5-0.1-0.9-0.2C6.9,8,7,8.2,7,8.5
		c0.1,0.5,0,0.7,0.1,1c0.1,0.5,0.4,0.8,0.5,1c0.4,0.5,0.9,0.7,1.1,0.7c0.5,0.2,0.8,0.1,1.6,0.2c0.4,0.1,0.8,0.1,1,0.2
		C11.3,11.2,11.2,10.9,11.1,10.5z"/>
	<path style="fill:none;stroke:#004BF4;stroke-width:0.25;stroke-miterlimit:10;" d="M19.3,9.9c-0.7,1.4-1.6,2-2,2.2
		c-0.8,0.4-1.6,0.6-1.7,0.6c-0.6,0.1-1.1,0.1-1.1,0.1c0,0,0.5,0.1,1.1,0.1c0.6,0,1-0.2,1.3-0.3c0.6-0.2,1-0.6,1.2-0.7
		C18.8,11.2,19.1,10.4,19.3,9.9z"/>
	<path style="fill:none;stroke:#004BF4;stroke-width:0.25;stroke-miterlimit:10;" d="M15.4,13.7c-0.2,0-0.6,0-0.7,0
		c0,0.1,0.6,0.3,0.8,0.3c0.5,0.1,0.8,0.2,1.3,0.3c0.2,0,0.8,0.1,1.4-0.1c1.3-0.3,2.2-1.5,2.2-1.5c0,0-0.3,0.3-0.9,0.7
		c-0.2,0.1-0.5,0.3-0.9,0.4c-0.7,0.2-1.2,0.2-1.6,0.1C16.5,13.9,16.3,13.8,15.4,13.7z"/>
	<path style="fill:none;stroke:#004BF4;stroke-width:0.25;stroke-miterlimit:10;" d="M14.5,14.3c0,0.1,0.4,0.3,0.6,0.5
		c0.4,0.2,0.8,0.4,1,0.4c0.5,0.2,1.1,0.3,1.8,0.3c1-0.1,1.7-0.6,1.7-0.6c0,0-0.7,0.5-1.7,0.5c-0.7,0-1.3-0.2-1.5-0.3
		c-0.3-0.1-0.3-0.2-0.8-0.3C15.4,14.6,14.6,14.2,14.5,14.3z"/>
	<path style="fill:none;stroke:#004BF4;stroke-width:0.25;stroke-miterlimit:10;" d="M6.6,9.9c0.7,1.4,1.6,2,2,2.2
		c0.8,0.4,1.6,0.6,1.7,0.6c0.6,0.1,1.1,0.1,1.1,0.1c0,0-0.5,0.1-1.1,0.1c-0.6,0-1-0.2-1.3-0.3c-0.6-0.2-1-0.6-1.2-0.7
		C7.2,11.2,6.8,10.4,6.6,9.9z"/>
	<path style="fill:none;stroke:#004BF4;stroke-width:0.25;stroke-miterlimit:10;" d="M10.5,13.5c0.2,0,0.6-0.1,0.7,0
		c0,0.1-0.6,0.3-0.8,0.3C9.9,14,9.5,14.1,9,14.2c-0.2,0-0.8,0.1-1.4-0.1c-1.3-0.3-2.2-1.5-2.2-1.5c0,0,0.3,0.3,0.9,0.7
		c0.2,0.1,0.5,0.3,0.9,0.4c0.7,0.2,1.2,0.2,1.6,0.1C9.5,13.7,9.6,13.6,10.5,13.5z"/>
	<path style="fill:none;stroke:#004BF4;stroke-width:0.25;stroke-miterlimit:10;" d="M11.7,14.2c0,0.1-0.4,0.3-0.6,0.5
		c-0.4,0.3-0.8,0.4-1,0.5c-0.5,0.2-1.1,0.4-1.7,0.4c-1,0-1.8-0.5-1.8-0.5c0,0,0.8,0.4,1.7,0.4c0.7,0,1.3-0.3,1.5-0.4
		c0.3-0.1,0.3-0.2,0.8-0.4C10.9,14.5,11.6,14.2,11.7,14.2z"/>
	<path style="fill:none;stroke:#004BF4;stroke-width:0.25;stroke-miterlimit:10;" d="M14.4,9.3c0.1-0.2,0.3-0.5,0.6-0.8
		c0.3-0.3,0.6-0.5,0.8-0.6"/>
	<path style="fill:none;stroke:#004BF4;stroke-width:0.25;stroke-miterlimit:10;" d="M11.3,9.3c-0.1-0.2-0.3-0.5-0.6-0.8
		c-0.3-0.3-0.6-0.5-0.8-0.6"/>
	<path style="fill:none;stroke:#004BF4;stroke-width:0.25;stroke-miterlimit:10;" d="M13.6,15c0.2,0,0.4,0.2,0.4,0.3
		c0,0.1-0.4-0.1-0.6,0.1c-0.2,0.2-0.1,0.6-0.3,0.7c-0.1,0-0.2,0-0.3,0c-0.2-0.1-0.1-0.5-0.3-0.7c-0.2-0.2-0.6,0-0.6-0.1
		c0-0.1,0.1-0.2,0.3-0.3c0.2-0.1,0.3,0.1,0.7,0.1C13.3,15,13.4,14.9,13.6,15z"/>
	<path style="fill:none;stroke:#004BF4;stroke-width:0.25;stroke-miterlimit:10;" d="M15.7,7.1c0.4-0.2,0.7-0.4,0.7-0.4
		C17.2,6.3,17.9,6,17.9,6c0,0-0.4,0.2-1.1,0.6c-0.5,0.3-0.7,0.4-0.9,0.6c-0.4,0.3-0.5,0.5-0.9,0.7c-0.2,0.1-0.6,0.3-0.6,0.2
		c0-0.1,0.4-0.4,0.5-0.5C15,7.5,15.3,7.4,15.7,7.1z"/>
	<path style="fill:none;stroke:#004BF4;stroke-width:0.25;stroke-miterlimit:10;" d="M15.5,6.5c0.6-0.6,1.2-0.9,1.2-0.9
		c0,0-0.4,0.2-0.8,0.7c-0.3,0.3-0.3,0.5-0.7,0.9c-0.2,0.3-0.6,0.6-0.6,0.6c0,0,0.3-0.5,0.3-0.5C15,7,15.2,6.8,15.5,6.5z"/>
	<path style="fill:none;stroke:#004BF4;stroke-width:0.25;stroke-miterlimit:10;" d="M9.6,6.9C9.3,6.7,9,6.5,8.9,6.5
		C8.1,6.1,7.4,5.8,7.4,5.8c0,0,0.4,0.2,1.1,0.6C8.9,6.7,9.2,6.8,9.4,7c0.4,0.3,0.5,0.5,0.9,0.7c0.2,0.1,0.6,0.3,0.6,0.2
		c0-0.1-0.4-0.4-0.5-0.5C10.3,7.3,10.1,7.2,9.6,6.9z"/>
	<path style="fill:none;stroke:#004BF4;stroke-width:0.25;stroke-miterlimit:10;" d="M9.8,6.3C9.2,5.7,8.6,5.4,8.6,5.4
		c0,0,0.4,0.2,0.8,0.7C9.8,6.4,9.8,6.5,10.2,7c0.2,0.3,0.6,0.6,0.6,0.6c0,0-0.3-0.5-0.3-0.5C10.3,6.8,10.1,6.6,9.8,6.3z"/>
</g>
<text transform="matrix(1.4561 0 0 1.75 25.6768 16.6328)" style="fill:#00CCFF; font-family:'ComicSansMS'; font-size:10.5396px;">fat school</text>
</svg>
